<svg xmlns="http://www.w3.org/2000/svg" xmlns:xlink="http://www.w3.org/1999/xlink" width="2000" zoomAndPan="magnify" viewBox="0 0 1500 1499.999933" height="2000" preserveAspectRatio="xMidYMid meet" version="1.0"><path fill="#0b8b68" d="M 735.503906 233.128906 C 728.90625 233.289062 722.3125 233.574219 715.726562 233.980469 C 709.136719 234.390625 702.558594 234.925781 695.992188 235.582031 C 689.421875 236.238281 682.871094 237.019531 676.332031 237.925781 C 669.792969 238.832031 663.273438 239.859375 656.773438 241.011719 C 650.273438 242.164062 643.800781 243.4375 637.347656 244.832031 C 630.898438 246.230469 624.476562 247.746094 618.082031 249.386719 C 611.6875 251.023438 605.324219 252.785156 599 254.664062 C 592.671875 256.542969 586.382812 258.542969 580.128906 260.660156 C 573.878906 262.777344 567.667969 265.011719 561.5 267.363281 C 555.332031 269.714844 549.210938 272.183594 543.136719 274.765625 C 537.0625 277.347656 531.039062 280.046875 525.066406 282.855469 C 519.097656 285.667969 513.179688 288.589844 507.316406 291.625 C 501.457031 294.660156 495.652344 297.804688 489.910156 301.058594 C 484.167969 304.3125 478.488281 307.671875 472.871094 311.140625 C 467.257812 314.609375 461.707031 318.183594 456.226562 321.863281 C 450.746094 325.539062 445.335938 329.320312 440 333.203125 C 434.660156 337.085938 429.398438 341.070312 424.210938 345.152344 C 419.023438 349.230469 413.914062 353.410156 408.886719 357.683594 C 403.855469 361.960938 398.910156 366.328125 394.042969 370.789062 C 389.179688 375.25 384.402344 379.804688 379.710938 384.445312 C 375.015625 389.089844 370.414062 393.816406 365.898438 398.632812 C 361.386719 403.449219 356.964844 408.351562 352.636719 413.332031 C 348.308594 418.316406 344.078125 423.378906 339.9375 428.523438 C 335.800781 433.667969 331.765625 438.886719 327.824219 444.183594 C 323.882812 449.480469 320.046875 454.847656 316.308594 460.289062 C 312.574219 465.730469 308.941406 471.238281 305.410156 476.816406 C 301.882812 482.394531 298.460938 488.039062 295.144531 493.746094 C 291.832031 499.453125 288.625 505.222656 285.527344 511.050781 C 282.429688 516.882812 279.445312 522.765625 276.570312 528.707031 C 273.695312 534.648438 270.933594 540.644531 268.285156 546.691406 C 265.636719 552.738281 263.101562 558.832031 260.683594 564.972656 C 258.265625 571.113281 255.964844 577.300781 253.78125 583.527344 C 251.597656 589.757812 249.53125 596.023438 247.585938 602.332031 C 245.636719 608.640625 243.8125 614.980469 242.101562 621.355469 C 240.394531 627.734375 238.808594 634.140625 237.34375 640.574219 C 235.878906 647.011719 234.535156 653.472656 233.3125 659.960938 C 232.09375 666.445312 230.996094 672.953125 230.019531 679.480469 C 229.042969 686.011719 228.191406 692.554688 227.464844 699.113281 C 226.738281 705.675781 226.132812 712.246094 225.652344 718.832031 C 225.175781 725.414062 224.820312 732.003906 224.589844 738.601562 C 224.359375 745.195312 224.253906 751.796875 224.273438 758.394531 C 224.292969 764.996094 224.433594 771.59375 224.703125 778.191406 C 224.972656 784.785156 225.363281 791.375 225.882812 797.953125 C 226.398438 804.535156 227.042969 811.101562 227.808594 817.660156 C 228.574219 824.214844 229.460938 830.753906 230.476562 837.277344 C 231.488281 843.800781 232.625 850.300781 233.882812 856.78125 C 235.140625 863.257812 236.519531 869.714844 238.023438 876.140625 C 239.527344 882.566406 241.148438 888.964844 242.894531 895.332031 C 244.636719 901.695312 246.5 908.027344 248.484375 914.324219 C 250.46875 920.617188 252.570312 926.875 254.789062 933.089844 C 257.011719 939.308594 259.347656 945.480469 261.800781 951.605469 C 264.253906 957.734375 266.820312 963.8125 269.503906 969.84375 C 272.1875 975.875 274.984375 981.855469 277.894531 987.777344 C 280.800781 993.703125 283.824219 999.570312 286.953125 1005.382812 C 290.085938 1011.195312 293.324219 1016.945312 296.671875 1022.632812 C 300.019531 1028.320312 303.472656 1033.945312 307.035156 1039.5 C 310.59375 1045.058594 314.261719 1050.546875 318.027344 1055.96875 C 321.796875 1061.386719 325.664062 1066.734375 329.636719 1072.007812 C 333.605469 1077.28125 337.675781 1082.476562 341.839844 1087.597656 C 346.007812 1092.714844 350.269531 1097.753906 354.625 1102.710938 C 358.984375 1107.671875 363.433594 1112.546875 367.972656 1117.335938 C 372.515625 1122.125 377.144531 1126.828125 381.863281 1131.445312 C 386.582031 1136.058594 391.386719 1140.582031 396.277344 1145.015625 C 401.167969 1149.449219 406.140625 1153.789062 411.195312 1158.035156 C 413.4375 1159.925781 415.730469 1161.753906 418.078125 1163.511719 C 420.421875 1165.273438 422.816406 1166.96875 425.257812 1168.59375 C 427.699219 1170.21875 430.1875 1171.769531 432.71875 1173.253906 C 435.246094 1174.738281 437.816406 1176.148438 440.429688 1177.484375 C 443.039062 1178.824219 445.6875 1180.085938 448.367188 1181.273438 C 451.050781 1182.460938 453.765625 1183.570312 456.511719 1184.601562 C 459.253906 1185.636719 462.027344 1186.589844 464.828125 1187.464844 C 467.628906 1188.339844 470.449219 1189.132812 473.292969 1189.847656 C 476.140625 1190.5625 479.003906 1191.195312 481.882812 1191.75 C 484.765625 1192.300781 487.660156 1192.769531 490.566406 1193.15625 C 493.472656 1193.546875 496.390625 1193.851562 499.316406 1194.070312 C 502.238281 1194.292969 505.167969 1194.433594 508.101562 1194.488281 C 511.035156 1194.542969 513.964844 1194.515625 516.898438 1194.402344 C 519.828125 1194.292969 522.753906 1194.097656 525.675781 1193.820312 C 528.59375 1193.542969 531.503906 1193.179688 534.402344 1192.738281 C 537.304688 1192.292969 540.1875 1191.769531 543.058594 1191.164062 C 545.925781 1190.554688 548.777344 1189.867188 551.609375 1189.097656 C 554.4375 1188.328125 557.246094 1187.480469 560.027344 1186.550781 C 562.808594 1185.621094 565.5625 1184.617188 568.289062 1183.53125 C 571.015625 1182.445312 573.707031 1181.285156 576.367188 1180.046875 C 579.023438 1178.808594 581.648438 1177.496094 584.230469 1176.109375 C 586.816406 1174.71875 589.359375 1173.261719 591.859375 1171.730469 C 594.363281 1170.195312 596.816406 1168.59375 599.226562 1166.925781 C 601.640625 1165.253906 604 1163.515625 606.3125 1161.707031 C 608.625 1159.902344 610.882812 1158.035156 613.085938 1156.097656 C 615.292969 1154.164062 617.441406 1152.171875 619.535156 1150.113281 C 621.625 1148.058594 623.65625 1145.945312 625.628906 1143.773438 C 627.601562 1141.601562 629.511719 1139.375 631.355469 1137.09375 C 633.199219 1134.816406 634.980469 1132.484375 636.691406 1130.101562 C 638.40625 1127.722656 640.050781 1125.292969 641.625 1122.820312 C 643.199219 1120.34375 644.703125 1117.828125 646.132812 1115.265625 C 647.566406 1112.707031 648.925781 1110.109375 650.207031 1107.472656 C 674.976562 1055.574219 694.359375 1001.742188 708.351562 945.96875 L 528.257812 792.507812 L 719.828125 896.585938 C 729.753906 846.53125 737.097656 796.097656 741.851562 745.289062 C 746.605469 694.480469 748.75 643.5625 748.285156 592.53125 C 747.828125 643.5625 749.980469 694.480469 754.75 745.292969 C 759.515625 796.101562 766.867188 846.53125 776.808594 896.585938 L 968.378906 792.507812 L 788.28125 945.96875 C 802.28125 1001.753906 821.667969 1055.601562 846.445312 1107.503906 C 847.707031 1110.121094 849.042969 1112.699219 850.453125 1115.238281 C 851.859375 1117.78125 853.339844 1120.28125 854.886719 1122.738281 C 856.4375 1125.195312 858.054688 1127.605469 859.742188 1129.972656 C 861.425781 1132.335938 863.179688 1134.652344 864.996094 1136.921875 C 866.8125 1139.1875 868.691406 1141.402344 870.632812 1143.5625 C 872.574219 1145.722656 874.574219 1147.828125 876.632812 1149.875 C 878.695312 1151.921875 880.808594 1153.910156 882.980469 1155.839844 C 885.15625 1157.769531 887.378906 1159.632812 889.65625 1161.4375 C 891.933594 1163.238281 894.261719 1164.976562 896.636719 1166.648438 C 899.015625 1168.320312 901.433594 1169.921875 903.902344 1171.457031 C 906.367188 1172.992188 908.875 1174.457031 911.425781 1175.847656 C 913.972656 1177.242188 916.558594 1178.5625 919.183594 1179.808594 C 921.804688 1181.058594 924.464844 1182.230469 927.152344 1183.324219 C 929.84375 1184.421875 932.5625 1185.445312 935.308594 1186.386719 C 938.054688 1187.332031 940.828125 1188.195312 943.625 1188.984375 C 946.417969 1189.769531 949.234375 1190.480469 952.070312 1191.109375 C 954.90625 1191.734375 957.757812 1192.285156 960.625 1192.75 C 963.492188 1193.21875 966.371094 1193.605469 969.261719 1193.910156 C 972.148438 1194.214844 975.042969 1194.4375 977.945312 1194.578125 C 980.847656 1194.71875 983.75 1194.78125 986.65625 1194.757812 C 989.558594 1194.734375 992.460938 1194.628906 995.359375 1194.445312 C 998.257812 1194.257812 1001.152344 1193.988281 1004.035156 1193.640625 C 1006.917969 1193.289062 1009.789062 1192.859375 1012.648438 1192.347656 C 1015.507812 1191.835938 1018.351562 1191.246094 1021.179688 1190.574219 C 1024.003906 1189.902344 1026.808594 1189.148438 1029.59375 1188.320312 C 1032.375 1187.488281 1035.132812 1186.582031 1037.867188 1185.59375 C 1040.597656 1184.609375 1043.300781 1183.546875 1045.972656 1182.40625 C 1048.644531 1181.269531 1051.285156 1180.054688 1053.886719 1178.765625 C 1056.492188 1177.480469 1059.058594 1176.121094 1061.585938 1174.6875 C 1064.113281 1173.253906 1066.597656 1171.75 1069.039062 1170.179688 C 1071.480469 1168.605469 1073.875 1166.964844 1076.226562 1165.257812 C 1078.574219 1163.550781 1080.875 1161.777344 1083.125 1159.9375 C 1088.316406 1155.625 1093.425781 1151.214844 1098.445312 1146.707031 C 1103.46875 1142.195312 1108.398438 1137.589844 1113.242188 1132.890625 C 1118.085938 1128.191406 1122.839844 1123.398438 1127.496094 1118.515625 C 1132.15625 1113.632812 1136.71875 1108.660156 1141.183594 1103.597656 C 1145.648438 1098.539062 1150.015625 1093.394531 1154.285156 1088.164062 C 1158.550781 1082.9375 1162.714844 1077.628906 1166.777344 1072.238281 C 1170.839844 1066.847656 1174.796875 1061.378906 1178.648438 1055.839844 C 1182.5 1050.296875 1186.242188 1044.679688 1189.875 1038.992188 C 1193.511719 1033.304688 1197.035156 1027.550781 1200.445312 1021.726562 C 1203.855469 1015.902344 1207.15625 1010.015625 1210.339844 1004.0625 C 1213.523438 998.113281 1216.589844 992.101562 1219.542969 986.03125 C 1222.492188 979.964844 1225.328125 973.839844 1228.042969 967.660156 C 1230.757812 961.480469 1233.351562 955.25 1235.828125 948.972656 C 1238.300781 942.691406 1240.652344 936.367188 1242.882812 929.996094 C 1245.113281 923.628906 1247.21875 917.214844 1249.199219 910.765625 C 1251.183594 904.3125 1253.039062 897.824219 1254.773438 891.300781 C 1256.503906 884.777344 1258.109375 878.222656 1259.585938 871.636719 C 1261.0625 865.054688 1262.414062 858.441406 1263.636719 851.804688 C 1264.859375 845.167969 1265.953125 838.507812 1266.917969 831.828125 C 1267.882812 825.148438 1268.71875 818.453125 1269.425781 811.738281 C 1270.132812 805.027344 1270.710938 798.304688 1271.15625 791.570312 C 1271.601562 784.835938 1271.917969 778.09375 1272.105469 771.347656 C 1272.292969 764.601562 1272.347656 757.851562 1272.273438 751.105469 C 1272.199219 744.355469 1271.992188 737.609375 1271.65625 730.867188 C 1271.324219 724.128906 1270.855469 717.394531 1270.261719 710.671875 C 1269.667969 703.949219 1268.941406 697.242188 1268.085938 690.546875 C 1267.230469 683.851562 1266.246094 677.175781 1265.136719 670.519531 C 1264.023438 663.859375 1262.78125 657.226562 1261.414062 650.617188 C 1260.042969 644.011719 1258.546875 637.429688 1256.921875 630.878906 C 1255.300781 624.328125 1253.550781 617.808594 1251.675781 611.328125 C 1249.800781 604.84375 1247.800781 598.398438 1245.675781 591.992188 C 1243.550781 585.585938 1241.304688 579.222656 1238.933594 572.902344 C 1236.5625 566.582031 1234.074219 560.3125 1231.460938 554.089844 C 1228.847656 547.867188 1226.117188 541.695312 1223.265625 535.578125 C 1220.414062 529.460938 1217.445312 523.402344 1214.359375 517.398438 C 1211.273438 511.394531 1208.074219 505.453125 1204.757812 499.574219 C 1201.445312 493.695312 1198.019531 487.882812 1194.476562 482.136719 C 1190.9375 476.390625 1187.289062 470.710938 1183.53125 465.105469 C 1179.773438 459.5 1175.90625 453.96875 1171.933594 448.515625 C 1167.960938 443.058594 1163.882812 437.679688 1159.703125 432.382812 C 1155.523438 427.082031 1151.242188 421.867188 1146.859375 416.734375 C 1142.476562 411.601562 1138 406.554688 1133.421875 401.59375 C 1128.84375 396.632812 1124.171875 391.761719 1119.40625 386.984375 C 1114.640625 382.203125 1109.785156 377.519531 1104.839844 372.925781 C 1099.894531 368.332031 1094.859375 363.839844 1089.738281 359.441406 C 1084.621094 355.042969 1079.417969 350.746094 1074.128906 346.550781 C 1068.84375 342.355469 1063.480469 338.261719 1058.035156 334.273438 C 1052.589844 330.285156 1047.070312 326.402344 1041.476562 322.625 C 1035.882812 318.847656 1030.21875 315.183594 1024.480469 311.625 C 1018.746094 308.070312 1012.941406 304.625 1007.074219 301.292969 C 1001.203125 297.960938 995.273438 294.742188 989.28125 291.636719 C 983.285156 288.535156 977.234375 285.546875 971.125 282.679688 C 965.015625 279.808594 958.855469 277.058594 952.640625 274.429688 C 946.425781 271.796875 940.160156 269.285156 933.847656 266.898438 C 927.535156 264.507812 921.179688 262.242188 914.78125 260.097656 C 908.378906 257.953125 901.941406 255.933594 895.464844 254.039062 C 888.984375 252.144531 882.472656 250.375 875.925781 248.734375 C 869.378906 247.089844 862.804688 245.574219 856.199219 244.183594 C 849.59375 242.796875 842.964844 241.535156 836.3125 240.402344 C 829.660156 239.269531 822.984375 238.265625 816.292969 237.390625 C 809.601562 236.515625 802.894531 235.769531 796.171875 235.15625 C 789.453125 234.539062 782.722656 234.054688 775.980469 233.699219 C 769.242188 233.34375 762.496094 233.117188 755.75 233.023438 C 749 232.925781 742.253906 232.964844 735.503906 233.128906 Z M 354.574219 670.523438 L 366.875 668.808594 C 368.464844 668.582031 370.0625 668.394531 371.664062 668.246094 C 373.269531 668.101562 374.871094 667.992188 376.480469 667.921875 C 378.085938 667.855469 379.695312 667.824219 381.304688 667.835938 C 382.914062 667.847656 384.519531 667.894531 386.125 667.984375 C 387.734375 668.074219 389.335938 668.203125 390.9375 668.371094 C 392.535156 668.539062 394.132812 668.746094 395.722656 668.992188 C 397.3125 669.238281 398.894531 669.523438 400.46875 669.847656 C 402.046875 670.171875 403.613281 670.535156 405.171875 670.933594 C 406.730469 671.335938 408.277344 671.773438 409.8125 672.25 C 411.347656 672.726562 412.871094 673.242188 414.382812 673.792969 C 415.894531 674.347656 417.390625 674.933594 418.875 675.558594 C 420.355469 676.183594 421.824219 676.847656 423.273438 677.542969 C 424.722656 678.242188 426.15625 678.972656 427.570312 679.738281 C 428.984375 680.507812 430.378906 681.308594 431.75 682.144531 C 433.125 682.980469 434.480469 683.851562 435.8125 684.753906 C 437.144531 685.65625 438.453125 686.589844 439.738281 687.554688 C 441.023438 688.523438 442.285156 689.519531 443.523438 690.550781 C 444.761719 691.578125 445.972656 692.636719 447.15625 693.722656 C 448.339844 694.8125 449.5 695.929688 450.628906 697.074219 C 451.757812 698.21875 452.859375 699.390625 453.933594 700.589844 C 455.007812 701.789062 456.050781 703.011719 457.0625 704.261719 C 458.074219 705.511719 459.054688 706.789062 460.003906 708.085938 C 460.957031 709.382812 461.875 710.707031 462.757812 712.046875 C 463.644531 713.390625 464.496094 714.757812 465.3125 716.140625 C 466.132812 717.527344 466.914062 718.929688 467.664062 720.355469 C 468.414062 721.777344 469.128906 723.21875 469.804688 724.679688 C 470.484375 726.136719 471.125 727.613281 471.734375 729.101562 C 472.339844 730.59375 472.90625 732.097656 473.441406 733.613281 C 473.972656 735.132812 474.46875 736.664062 474.925781 738.207031 C 475.382812 739.75 475.800781 741.300781 476.179688 742.863281 C 476.5625 744.425781 476.902344 746 477.207031 747.578125 C 477.511719 749.160156 477.777344 750.746094 478 752.339844 L 479.714844 764.636719 L 467.417969 766.351562 C 465.824219 766.578125 464.230469 766.761719 462.625 766.910156 C 461.023438 767.058594 459.421875 767.164062 457.8125 767.234375 C 456.207031 767.300781 454.597656 767.332031 452.988281 767.320312 C 451.382812 767.308594 449.773438 767.261719 448.167969 767.171875 C 446.5625 767.082031 444.957031 766.953125 443.359375 766.785156 C 441.757812 766.617188 440.164062 766.410156 438.574219 766.164062 C 436.984375 765.917969 435.402344 765.632812 433.828125 765.308594 C 432.25 764.984375 430.683594 764.621094 429.125 764.21875 C 427.570312 763.816406 426.023438 763.378906 424.484375 762.902344 C 422.949219 762.425781 421.425781 761.910156 419.914062 761.359375 C 418.402344 760.808594 416.90625 760.21875 415.425781 759.59375 C 413.941406 758.96875 412.476562 758.308594 411.027344 757.609375 C 409.578125 756.914062 408.144531 756.179688 406.730469 755.414062 C 405.320312 754.644531 403.925781 753.84375 402.550781 753.007812 C 401.175781 752.171875 399.824219 751.300781 398.492188 750.398438 C 397.160156 749.496094 395.851562 748.5625 394.566406 747.597656 C 393.277344 746.628906 392.019531 745.632812 390.78125 744.601562 C 389.542969 743.574219 388.332031 742.515625 387.148438 741.429688 C 385.964844 740.339844 384.804688 739.222656 383.675781 738.078125 C 382.546875 736.933594 381.445312 735.761719 380.371094 734.5625 C 379.300781 733.363281 378.257812 732.140625 377.246094 730.890625 C 376.234375 729.640625 375.25 728.367188 374.300781 727.066406 C 373.351562 725.769531 372.433594 724.449219 371.550781 723.105469 C 370.664062 721.761719 369.8125 720.398438 368.996094 719.011719 C 368.175781 717.628906 367.394531 716.222656 366.644531 714.800781 C 365.894531 713.375 365.179688 711.9375 364.503906 710.476562 C 363.824219 709.019531 363.183594 707.542969 362.578125 706.054688 C 361.96875 704.5625 361.402344 703.058594 360.867188 701.542969 C 360.335938 700.023438 359.84375 698.492188 359.386719 696.953125 C 358.929688 695.410156 358.507812 693.855469 358.128906 692.292969 C 357.746094 690.730469 357.40625 689.160156 357.101562 687.578125 C 356.796875 686 356.535156 684.414062 356.308594 682.820312 Z M 362.363281 856.898438 C 363.28125 855.449219 364.234375 854.023438 365.222656 852.621094 C 366.207031 851.21875 367.230469 849.839844 368.285156 848.488281 C 369.339844 847.136719 370.429688 845.8125 371.550781 844.515625 C 372.667969 843.214844 373.820312 841.945312 375.003906 840.703125 C 376.1875 839.460938 377.398438 838.25 378.640625 837.066406 C 379.882812 835.882812 381.15625 834.734375 382.453125 833.613281 C 383.753906 832.492188 385.078125 831.40625 386.429688 830.351562 C 387.78125 829.296875 389.160156 828.273438 390.5625 827.289062 C 391.964844 826.300781 393.390625 825.347656 394.839844 824.429688 C 396.289062 823.511719 397.761719 822.632812 399.253906 821.785156 C 400.746094 820.941406 402.257812 820.132812 403.789062 819.363281 C 405.320312 818.59375 406.871094 817.859375 408.441406 817.164062 C 410.007812 816.46875 411.59375 815.8125 413.191406 815.199219 C 414.792969 814.582031 416.40625 814.003906 418.035156 813.464844 C 419.664062 812.929688 421.304688 812.429688 422.957031 811.972656 C 424.613281 811.515625 426.273438 811.101562 427.949219 810.726562 C 429.621094 810.351562 431.304688 810.015625 432.992188 809.722656 C 434.683594 809.429688 436.378906 809.179688 438.082031 808.96875 C 439.785156 808.761719 441.492188 808.59375 443.199219 808.46875 C 444.910156 808.339844 446.625 808.257812 448.339844 808.214844 C 450.054688 808.175781 451.769531 808.175781 453.480469 808.21875 C 455.195312 808.261719 456.910156 808.34375 458.621094 808.472656 C 460.328125 808.597656 462.035156 808.765625 463.738281 808.976562 C 465.441406 809.1875 467.136719 809.441406 468.828125 809.734375 C 470.515625 810.027344 472.199219 810.363281 473.871094 810.738281 C 475.542969 811.113281 477.207031 811.53125 478.859375 811.988281 C 480.511719 812.449219 482.152344 812.945312 483.78125 813.484375 C 485.410156 814.023438 487.023438 814.601562 488.625 815.21875 C 490.222656 815.835938 491.808594 816.492188 493.375 817.1875 C 494.945312 817.886719 496.492188 818.617188 498.023438 819.390625 C 499.554688 820.160156 501.066406 820.96875 502.558594 821.816406 C 504.050781 822.664062 505.523438 823.542969 506.972656 824.460938 C 506.054688 825.910156 505.101562 827.335938 504.113281 828.738281 C 503.125 830.140625 502.101562 831.515625 501.046875 832.867188 C 499.992188 834.21875 498.902344 835.546875 497.78125 836.84375 C 496.664062 838.140625 495.511719 839.414062 494.328125 840.652344 C 493.144531 841.894531 491.933594 843.109375 490.691406 844.289062 C 489.449219 845.472656 488.175781 846.625 486.878906 847.742188 C 485.578125 848.863281 484.253906 849.949219 482.902344 851.003906 C 481.546875 852.058594 480.171875 853.082031 478.769531 854.066406 C 477.367188 855.054688 475.941406 856.007812 474.492188 856.925781 C 473.042969 857.839844 471.570312 858.722656 470.078125 859.566406 C 468.585938 860.414062 467.074219 861.21875 465.542969 861.992188 C 464.011719 862.761719 462.460938 863.492188 460.890625 864.1875 C 459.324219 864.882812 457.738281 865.539062 456.140625 866.15625 C 454.539062 866.773438 452.925781 867.347656 451.296875 867.886719 C 449.667969 868.425781 448.027344 868.921875 446.375 869.378906 C 444.71875 869.835938 443.058594 870.253906 441.382812 870.628906 C 439.710938 871.003906 438.027344 871.335938 436.339844 871.628906 C 434.648438 871.921875 432.953125 872.171875 431.25 872.382812 C 429.546875 872.59375 427.84375 872.761719 426.132812 872.886719 C 424.421875 873.011719 422.710938 873.09375 420.996094 873.136719 C 419.28125 873.179688 417.566406 873.179688 415.851562 873.136719 C 414.136719 873.09375 412.425781 873.007812 410.714844 872.882812 C 409.003906 872.753906 407.296875 872.585938 405.59375 872.375 C 403.894531 872.167969 402.199219 871.914062 400.507812 871.621094 C 398.816406 871.328125 397.136719 870.992188 395.464844 870.617188 C 393.789062 870.242188 392.125 869.824219 390.472656 869.367188 C 388.820312 868.90625 387.179688 868.410156 385.550781 867.871094 C 383.925781 867.332031 382.308594 866.753906 380.710938 866.136719 C 379.109375 865.519531 377.527344 864.863281 375.957031 864.167969 C 374.390625 863.472656 372.839844 862.738281 371.308594 861.96875 C 369.777344 861.195312 368.265625 860.386719 366.773438 859.542969 C 365.28125 858.695312 363.8125 857.816406 362.363281 856.898438 Z M 544.003906 1055.449219 C 544.003906 1053.753906 544.042969 1052.0625 544.128906 1050.371094 C 544.210938 1048.679688 544.335938 1046.988281 544.5 1045.304688 C 544.667969 1043.617188 544.875 1041.9375 545.121094 1040.261719 C 545.371094 1038.585938 545.660156 1036.917969 545.992188 1035.253906 C 546.320312 1033.59375 546.691406 1031.941406 547.105469 1030.296875 C 547.515625 1028.652344 547.96875 1027.023438 548.460938 1025.402344 C 548.953125 1023.78125 549.484375 1022.171875 550.054688 1020.578125 C 550.625 1018.980469 551.234375 1017.402344 551.882812 1015.835938 C 552.53125 1014.269531 553.214844 1012.722656 553.941406 1011.191406 C 554.664062 1009.660156 555.425781 1008.148438 556.226562 1006.652344 C 557.023438 1005.160156 557.859375 1003.6875 558.730469 1002.234375 C 559.601562 1000.78125 560.507812 999.347656 561.449219 997.941406 C 562.390625 996.53125 563.363281 995.148438 564.371094 993.785156 C 565.382812 992.425781 566.425781 991.089844 567.5 989.78125 C 568.574219 988.472656 569.679688 987.1875 570.816406 985.933594 C 571.953125 984.679688 573.121094 983.453125 574.320312 982.253906 C 575.519531 981.058594 576.746094 979.890625 578 978.75 C 579.253906 977.613281 580.539062 976.507812 581.847656 975.433594 C 583.15625 974.359375 584.492188 973.316406 585.851562 972.308594 C 587.214844 971.296875 588.597656 970.324219 590.007812 969.382812 C 591.414062 968.441406 592.847656 967.535156 594.300781 966.664062 C 595.753906 965.792969 597.226562 964.957031 598.71875 964.160156 C 600.214844 963.359375 601.726562 962.597656 603.257812 961.875 C 604.789062 961.152344 606.335938 960.464844 607.902344 959.816406 C 609.46875 959.167969 611.046875 958.558594 612.644531 957.988281 C 614.238281 957.417969 615.847656 956.886719 617.46875 956.394531 C 619.089844 955.902344 620.71875 955.449219 622.363281 955.039062 C 624.007812 954.628906 625.660156 954.257812 627.320312 953.925781 C 628.980469 953.59375 630.652344 953.304688 632.328125 953.058594 C 634.003906 952.808594 635.683594 952.601562 637.367188 952.433594 C 639.054688 952.269531 640.742188 952.144531 642.4375 952.0625 C 644.128906 951.976562 645.820312 951.9375 647.515625 951.9375 C 647.515625 953.632812 647.472656 955.324219 647.390625 957.019531 C 647.308594 958.710938 647.183594 960.398438 647.015625 962.085938 C 646.851562 963.773438 646.640625 965.453125 646.394531 967.132812 C 646.144531 968.808594 645.855469 970.476562 645.523438 972.140625 C 645.195312 973.800781 644.824219 975.453125 644.410156 977.097656 C 644 978.742188 643.546875 980.375 643.054688 981.996094 C 642.5625 983.617188 642.03125 985.226562 641.460938 986.824219 C 640.886719 988.417969 640.277344 990 639.628906 991.566406 C 638.980469 993.128906 638.292969 994.679688 637.570312 996.210938 C 636.84375 997.742188 636.082031 999.257812 635.28125 1000.75 C 634.484375 1002.246094 633.648438 1003.71875 632.777344 1005.171875 C 631.90625 1006.625 630.996094 1008.058594 630.054688 1009.464844 C 629.113281 1010.875 628.136719 1012.261719 627.128906 1013.621094 C 626.117188 1014.980469 625.074219 1016.316406 624 1017.628906 C 622.925781 1018.9375 621.816406 1020.21875 620.679688 1021.476562 C 619.539062 1022.730469 618.371094 1023.957031 617.171875 1025.15625 C 615.972656 1026.351562 614.746094 1027.519531 613.492188 1028.660156 C 612.234375 1029.796875 610.949219 1030.902344 609.640625 1031.976562 C 608.328125 1033.050781 606.992188 1034.09375 605.632812 1035.101562 C 604.269531 1036.113281 602.886719 1037.085938 601.476562 1038.027344 C 600.066406 1038.96875 598.632812 1039.875 597.179688 1040.746094 C 595.726562 1041.617188 594.25 1042.449219 592.757812 1043.25 C 591.261719 1044.046875 589.746094 1044.808594 588.214844 1045.53125 C 586.683594 1046.253906 585.132812 1046.941406 583.566406 1047.589844 C 582 1048.238281 580.421875 1048.847656 578.824219 1049.417969 C 577.226562 1049.984375 575.621094 1050.515625 573.996094 1051.007812 C 572.375 1051.5 570.742188 1051.949219 569.097656 1052.359375 C 567.453125 1052.773438 565.800781 1053.140625 564.136719 1053.472656 C 562.476562 1053.800781 560.804688 1054.089844 559.128906 1054.335938 C 557.453125 1054.585938 555.769531 1054.792969 554.085938 1054.957031 C 552.398438 1055.121094 550.707031 1055.246094 549.015625 1055.328125 C 547.324219 1055.410156 545.628906 1055.449219 543.933594 1055.449219 Z M 588.390625 888.644531 C 587.84375 890.269531 587.253906 891.878906 586.625 893.476562 C 585.996094 895.070312 585.328125 896.652344 584.621094 898.214844 C 583.917969 899.777344 583.171875 901.324219 582.390625 902.847656 C 581.609375 904.375 580.789062 905.882812 579.933594 907.367188 C 579.078125 908.855469 578.183594 910.320312 577.257812 911.761719 C 576.328125 913.203125 575.367188 914.621094 574.367188 916.019531 C 573.371094 917.414062 572.339844 918.785156 571.277344 920.128906 C 570.210938 921.472656 569.113281 922.789062 567.984375 924.082031 C 566.855469 925.371094 565.695312 926.632812 564.503906 927.867188 C 563.3125 929.101562 562.089844 930.304688 560.839844 931.480469 C 559.589844 932.652344 558.308594 933.796875 557.003906 934.90625 C 555.695312 936.019531 554.363281 937.097656 553.003906 938.140625 C 551.644531 939.1875 550.257812 940.199219 548.851562 941.175781 C 547.441406 942.152344 546.007812 943.097656 544.554688 944.003906 C 543.097656 944.910156 541.621094 945.78125 540.121094 946.617188 C 538.625 947.453125 537.105469 948.25 535.566406 949.007812 C 534.03125 949.769531 532.476562 950.492188 530.902344 951.175781 C 529.328125 951.859375 527.742188 952.503906 526.136719 953.109375 C 524.53125 953.714844 522.914062 954.28125 521.28125 954.808594 C 519.648438 955.335938 518.003906 955.820312 516.347656 956.265625 C 514.691406 956.710938 513.023438 957.117188 511.347656 957.480469 C 509.671875 957.84375 507.988281 958.167969 506.296875 958.449219 C 504.605469 958.730469 502.90625 958.96875 501.203125 959.167969 C 499.5 959.363281 497.792969 959.519531 496.082031 959.632812 C 494.367188 959.746094 492.65625 959.820312 490.941406 959.847656 C 489.226562 959.878906 487.511719 959.867188 485.796875 959.8125 C 484.082031 959.757812 482.371094 959.660156 480.660156 959.523438 C 478.953125 959.386719 477.246094 959.203125 475.546875 958.984375 C 473.84375 958.761719 472.152344 958.496094 470.460938 958.191406 C 468.773438 957.886719 467.09375 957.539062 465.425781 957.152344 C 463.753906 956.765625 462.09375 956.335938 460.445312 955.867188 C 458.792969 955.398438 457.15625 954.886719 455.53125 954.335938 C 456.082031 952.714844 456.671875 951.105469 457.300781 949.511719 C 457.929688 947.914062 458.597656 946.335938 459.304688 944.773438 C 460.007812 943.214844 460.753906 941.667969 461.535156 940.144531 C 462.316406 938.617188 463.136719 937.113281 463.992188 935.628906 C 464.847656 934.144531 465.738281 932.679688 466.667969 931.238281 C 467.59375 929.796875 468.558594 928.378906 469.554688 926.984375 C 470.550781 925.589844 471.582031 924.222656 472.648438 922.878906 C 473.710938 921.535156 474.808594 920.214844 475.9375 918.925781 C 477.066406 917.636719 478.226562 916.375 479.417969 915.140625 C 480.609375 913.910156 481.828125 912.707031 483.078125 911.53125 C 484.328125 910.359375 485.605469 909.21875 486.910156 908.109375 C 488.21875 906.996094 489.550781 905.917969 490.910156 904.875 C 492.269531 903.828125 493.652344 902.820312 495.058594 901.839844 C 496.46875 900.863281 497.898438 899.921875 499.355469 899.015625 C 500.808594 898.109375 502.285156 897.238281 503.78125 896.402344 C 505.28125 895.566406 506.796875 894.769531 508.332031 894.011719 C 509.871094 893.25 511.421875 892.527344 512.996094 891.84375 C 514.566406 891.160156 516.15625 890.515625 517.757812 889.910156 C 519.363281 889.304688 520.980469 888.738281 522.609375 888.210938 C 524.242188 887.683594 525.886719 887.199219 527.539062 886.753906 C 529.195312 886.308594 530.859375 885.902344 532.535156 885.539062 C 534.210938 885.171875 535.894531 884.851562 537.585938 884.566406 C 539.277344 884.285156 540.972656 884.046875 542.675781 883.847656 C 544.378906 883.648438 546.085938 883.492188 547.796875 883.378906 C 549.503906 883.261719 551.21875 883.191406 552.929688 883.160156 C 554.644531 883.128906 556.359375 883.140625 558.074219 883.195312 C 559.785156 883.246094 561.496094 883.34375 563.207031 883.480469 C 564.914062 883.617188 566.617188 883.796875 568.320312 884.015625 C 570.019531 884.238281 571.710938 884.5 573.398438 884.804688 C 575.085938 885.109375 576.765625 885.453125 578.433594 885.839844 C 580.105469 886.226562 581.765625 886.652344 583.414062 887.121094 C 585.0625 887.589844 586.699219 888.097656 588.324219 888.644531 Z M 540.261719 744.226562 C 538.777344 743.367188 537.3125 742.476562 535.871094 741.546875 C 534.429688 740.617188 533.011719 739.652344 531.617188 738.652344 C 530.222656 737.65625 528.855469 736.621094 527.511719 735.558594 C 526.167969 734.492188 524.851562 733.394531 523.5625 732.261719 C 522.273438 731.132812 521.011719 729.96875 519.777344 728.777344 C 518.546875 727.585938 517.34375 726.363281 516.171875 725.109375 C 514.996094 723.859375 513.855469 722.578125 512.746094 721.273438 C 511.636719 719.964844 510.558594 718.628906 509.515625 717.269531 C 508.472656 715.910156 507.460938 714.523438 506.484375 713.113281 C 505.507812 711.703125 504.566406 710.269531 503.660156 708.8125 C 502.753906 707.359375 501.886719 705.878906 501.050781 704.378906 C 500.21875 702.882812 499.421875 701.363281 498.664062 699.824219 C 497.90625 698.285156 497.183594 696.730469 496.503906 695.15625 C 495.820312 693.582031 495.175781 691.996094 494.574219 690.390625 C 493.96875 688.785156 493.402344 687.164062 492.878906 685.53125 C 492.355469 683.898438 491.871094 682.253906 491.425781 680.597656 C 490.980469 678.941406 490.578125 677.273438 490.214844 675.597656 C 489.855469 673.921875 489.535156 672.238281 489.253906 670.546875 C 488.972656 668.851562 488.738281 667.15625 488.539062 665.449219 C 488.34375 663.746094 488.191406 662.039062 488.078125 660.328125 C 487.964844 658.617188 487.894531 656.902344 487.867188 655.1875 C 487.839844 653.472656 487.851562 651.757812 487.910156 650.046875 C 487.964844 648.332031 488.0625 646.617188 488.203125 644.910156 C 488.34375 643.199219 488.527344 641.496094 488.75 639.792969 C 488.972656 638.09375 489.238281 636.402344 489.546875 634.714844 C 489.851562 633.027344 490.199219 631.347656 490.589844 629.675781 C 490.980469 628.007812 491.410156 626.347656 491.882812 624.695312 C 492.351562 623.046875 492.863281 621.410156 493.414062 619.789062 C 493.964844 618.164062 494.558594 616.554688 495.1875 614.957031 C 495.816406 613.363281 496.488281 611.785156 497.195312 610.222656 C 497.902344 608.660156 498.648438 607.117188 499.433594 605.589844 C 500.214844 604.066406 501.035156 602.558594 501.894531 601.074219 C 503.378906 601.933594 504.84375 602.828125 506.28125 603.757812 C 507.722656 604.6875 509.140625 605.648438 510.535156 606.648438 C 511.929688 607.648438 513.296875 608.683594 514.640625 609.75 C 515.980469 610.816406 517.296875 611.914062 518.585938 613.046875 C 519.875 614.175781 521.136719 615.339844 522.367188 616.53125 C 523.601562 617.722656 524.800781 618.945312 525.972656 620.199219 C 527.144531 621.449219 528.285156 622.730469 529.394531 624.039062 C 530.503906 625.347656 531.578125 626.679688 532.625 628.042969 C 533.667969 629.402344 534.675781 630.789062 535.652344 632.199219 C 536.628906 633.609375 537.566406 635.042969 538.472656 636.5 C 539.378906 637.957031 540.246094 639.433594 541.078125 640.933594 C 541.910156 642.433594 542.707031 643.953125 543.464844 645.488281 C 544.222656 647.027344 544.941406 648.585938 545.625 650.15625 C 546.304688 651.730469 546.945312 653.320312 547.550781 654.925781 C 548.152344 656.53125 548.71875 658.148438 549.242188 659.78125 C 549.765625 661.414062 550.25 663.0625 550.691406 664.71875 C 551.136719 666.375 551.539062 668.039062 551.898438 669.714844 C 552.261719 671.394531 552.582031 673.078125 552.859375 674.769531 C 553.136719 676.460938 553.375 678.160156 553.570312 679.863281 C 553.765625 681.566406 553.917969 683.273438 554.03125 684.984375 C 554.144531 686.695312 554.210938 688.410156 554.238281 690.125 C 554.265625 691.839844 554.253906 693.554688 554.195312 695.265625 C 554.140625 696.980469 554.039062 698.691406 553.898438 700.402344 C 553.757812 702.109375 553.574219 703.816406 553.351562 705.515625 C 553.128906 707.214844 552.859375 708.910156 552.554688 710.597656 C 552.246094 712.285156 551.898438 713.960938 551.507812 715.632812 C 551.117188 717.300781 550.6875 718.960938 550.214844 720.609375 C 549.742188 722.257812 549.230469 723.894531 548.679688 725.519531 C 548.128906 727.140625 547.535156 728.75 546.90625 730.347656 C 546.273438 731.941406 545.605469 733.519531 544.898438 735.082031 C 544.1875 736.640625 543.441406 738.183594 542.65625 739.710938 C 541.875 741.234375 541.054688 742.742188 540.195312 744.226562 Z M 657.378906 802.320312 C 655.992188 801.308594 654.632812 800.261719 653.300781 799.183594 C 651.96875 798.101562 650.660156 796.992188 649.382812 795.847656 C 648.105469 794.703125 646.855469 793.53125 645.632812 792.324219 C 644.414062 791.121094 643.222656 789.886719 642.0625 788.625 C 640.902344 787.359375 639.773438 786.070312 638.675781 784.753906 C 637.578125 783.433594 636.515625 782.089844 635.484375 780.71875 C 634.453125 779.347656 633.457031 777.953125 632.496094 776.53125 C 631.53125 775.113281 630.605469 773.671875 629.714844 772.203125 C 628.820312 770.738281 627.964844 769.253906 627.148438 767.746094 C 626.328125 766.238281 625.546875 764.710938 624.804688 763.167969 C 624.058594 761.621094 623.355469 760.058594 622.6875 758.476562 C 622.019531 756.898438 621.394531 755.300781 620.804688 753.691406 C 620.214844 752.082031 619.667969 750.457031 619.160156 748.816406 C 618.648438 747.179688 618.179688 745.53125 617.753906 743.871094 C 617.324219 742.207031 616.9375 740.539062 616.59375 738.859375 C 616.246094 737.179688 615.941406 735.492188 615.679688 733.796875 C 615.417969 732.101562 615.195312 730.402344 615.015625 728.695312 C 614.835938 726.988281 614.699219 725.28125 614.601562 723.566406 C 614.507812 721.855469 614.453125 720.140625 614.441406 718.425781 C 614.429688 716.710938 614.460938 714.996094 614.535156 713.28125 C 614.605469 711.570312 614.722656 709.859375 614.878906 708.148438 C 615.035156 706.441406 615.234375 704.738281 615.472656 703.039062 C 615.714844 701.34375 615.996094 699.652344 616.320312 697.964844 C 616.644531 696.28125 617.007812 694.605469 617.414062 692.941406 C 617.820312 691.273438 618.265625 689.617188 618.753906 687.972656 C 619.238281 686.328125 619.765625 684.695312 620.332031 683.078125 C 620.902344 681.460938 621.507812 679.855469 622.152344 678.265625 C 622.796875 676.675781 623.484375 675.105469 624.207031 673.550781 C 624.929688 671.996094 625.691406 670.457031 626.488281 668.941406 C 627.285156 667.421875 628.121094 665.925781 628.992188 664.449219 C 629.867188 662.96875 630.773438 661.515625 631.71875 660.082031 C 632.660156 658.652344 633.636719 657.242188 634.652344 655.859375 C 636.035156 656.871094 637.394531 657.917969 638.726562 658.996094 C 640.0625 660.074219 641.367188 661.1875 642.644531 662.328125 C 643.921875 663.472656 645.171875 664.644531 646.394531 665.851562 C 647.617188 667.054688 648.804688 668.289062 649.964844 669.554688 C 651.125 670.816406 652.253906 672.105469 653.351562 673.425781 C 654.449219 674.742188 655.511719 676.089844 656.542969 677.460938 C 657.574219 678.828125 658.570312 680.226562 659.535156 681.644531 C 660.496094 683.066406 661.421875 684.507812 662.316406 685.972656 C 663.207031 687.4375 664.0625 688.925781 664.878906 690.429688 C 665.699219 691.9375 666.480469 693.464844 667.222656 695.011719 C 667.96875 696.554688 668.671875 698.117188 669.339844 699.699219 C 670.007812 701.277344 670.636719 702.875 671.222656 704.484375 C 671.8125 706.097656 672.359375 707.722656 672.871094 709.359375 C 673.378906 710.996094 673.847656 712.648438 674.273438 714.308594 C 674.703125 715.96875 675.089844 717.640625 675.4375 719.320312 C 675.78125 721 676.085938 722.6875 676.347656 724.382812 C 676.613281 726.078125 676.832031 727.777344 677.011719 729.484375 C 677.191406 731.1875 677.328125 732.898438 677.425781 734.609375 C 677.519531 736.324219 677.574219 738.035156 677.585938 739.75 C 677.597656 741.464844 677.566406 743.179688 677.492188 744.894531 C 677.421875 746.609375 677.304688 748.320312 677.148438 750.027344 C 676.992188 751.734375 676.792969 753.4375 676.554688 755.136719 C 676.3125 756.835938 676.03125 758.527344 675.707031 760.210938 C 675.386719 761.894531 675.019531 763.570312 674.613281 765.238281 C 674.210938 766.902344 673.761719 768.558594 673.277344 770.203125 C 672.789062 771.847656 672.261719 773.480469 671.695312 775.097656 C 671.128906 776.71875 670.523438 778.320312 669.875 779.910156 C 669.230469 781.5 668.546875 783.070312 667.824219 784.628906 C 667.097656 786.183594 666.339844 787.71875 665.539062 789.238281 C 664.742188 790.753906 663.90625 792.253906 663.035156 793.730469 C 662.164062 795.207031 661.253906 796.660156 660.3125 798.09375 C 659.367188 799.527344 658.390625 800.933594 657.378906 802.320312 Z M 701.167969 623.390625 C 698.898438 623.902344 696.621094 624.355469 694.328125 624.757812 C 692.039062 625.15625 689.738281 625.5 687.433594 625.785156 C 685.125 626.074219 682.8125 626.300781 680.492188 626.476562 C 678.175781 626.648438 675.855469 626.765625 673.53125 626.824219 C 671.207031 626.882812 668.882812 626.886719 666.558594 626.832031 C 664.234375 626.777344 661.910156 626.664062 659.59375 626.496094 C 657.273438 626.324219 654.960938 626.101562 652.652344 625.816406 C 650.34375 625.535156 648.046875 625.195312 645.753906 624.800781 C 643.464844 624.40625 641.183594 623.953125 638.914062 623.445312 C 636.644531 622.9375 634.390625 622.375 632.148438 621.757812 C 629.90625 621.140625 627.683594 620.464844 625.476562 619.738281 C 623.265625 619.011719 621.078125 618.230469 618.90625 617.394531 C 616.738281 616.558594 614.589844 615.671875 612.464844 614.730469 C 610.335938 613.789062 608.234375 612.796875 606.15625 611.753906 C 604.082031 610.710938 602.03125 609.617188 600.003906 608.472656 C 597.980469 607.328125 595.988281 606.132812 594.023438 604.890625 C 592.058594 603.648438 590.125 602.359375 588.222656 601.023438 C 586.320312 599.683594 584.453125 598.300781 582.617188 596.871094 C 580.785156 595.445312 578.988281 593.96875 577.226562 592.453125 C 575.464844 590.933594 573.742188 589.375 572.054688 587.773438 C 570.371094 586.171875 568.726562 584.527344 567.121094 582.847656 C 565.515625 581.164062 563.957031 579.441406 562.4375 577.683594 C 560.914062 575.921875 559.441406 574.128906 558.007812 572.296875 C 556.578125 570.464844 555.191406 568.597656 553.851562 566.699219 C 552.511719 564.796875 551.21875 562.867188 549.972656 560.902344 C 548.730469 558.9375 547.53125 556.945312 546.386719 554.921875 C 545.238281 552.902344 544.140625 550.851562 543.09375 548.777344 C 542.050781 546.699219 541.054688 544.597656 540.109375 542.472656 C 539.167969 540.347656 538.277344 538.203125 537.4375 536.035156 C 536.601562 533.863281 535.816406 531.675781 535.085938 529.46875 C 534.355469 527.261719 533.679688 525.039062 533.058594 522.796875 C 532.4375 520.558594 531.871094 518.304688 531.363281 516.035156 C 533.628906 515.523438 535.910156 515.066406 538.199219 514.667969 C 540.488281 514.269531 542.789062 513.925781 545.09375 513.636719 C 547.402344 513.351562 549.714844 513.121094 552.035156 512.949219 C 554.351562 512.773438 556.675781 512.660156 559 512.597656 C 561.324219 512.539062 563.648438 512.539062 565.972656 512.59375 C 568.296875 512.648438 570.617188 512.761719 572.9375 512.929688 C 575.253906 513.097656 577.566406 513.324219 579.875 513.605469 C 582.183594 513.890625 584.484375 514.226562 586.773438 514.625 C 589.066406 515.019531 591.34375 515.46875 593.613281 515.976562 C 595.882812 516.484375 598.136719 517.046875 600.378906 517.667969 C 602.621094 518.285156 604.84375 518.957031 607.054688 519.683594 C 609.261719 520.414062 611.449219 521.195312 613.621094 522.027344 C 615.789062 522.863281 617.9375 523.753906 620.066406 524.691406 C 622.191406 525.632812 624.292969 526.625 626.371094 527.667969 C 628.449219 528.710938 630.5 529.808594 632.523438 530.953125 C 634.546875 532.097656 636.539062 533.289062 638.503906 534.53125 C 640.472656 535.773438 642.40625 537.0625 644.304688 538.402344 C 646.207031 539.738281 648.074219 541.121094 649.910156 542.550781 C 651.742188 543.980469 653.542969 545.453125 655.304688 546.972656 C 657.0625 548.488281 658.789062 550.046875 660.472656 551.648438 C 662.15625 553.253906 663.800781 554.894531 665.40625 556.578125 C 667.011719 558.261719 668.574219 559.980469 670.09375 561.742188 C 671.613281 563.5 673.085938 565.296875 674.519531 567.128906 C 675.949219 568.960938 677.335938 570.828125 678.675781 572.726562 C 680.015625 574.625 681.308594 576.558594 682.554688 578.523438 C 683.796875 580.484375 684.996094 582.476562 686.140625 584.5 C 687.289062 586.523438 688.386719 588.570312 689.433594 590.648438 C 690.480469 592.722656 691.472656 594.824219 692.417969 596.949219 C 693.359375 599.074219 694.25 601.222656 695.089844 603.390625 C 695.925781 605.558594 696.710938 607.746094 697.441406 609.953125 C 698.171875 612.160156 698.847656 614.386719 699.46875 616.625 C 700.089844 618.867188 700.65625 621.121094 701.167969 623.390625 Z M 760.753906 537.320312 L 748.285156 549.808594 L 735.8125 537.335938 C 734.199219 535.722656 732.628906 534.070312 731.097656 532.382812 C 729.5625 530.691406 728.074219 528.964844 726.625 527.199219 C 725.179688 525.4375 723.777344 523.636719 722.417969 521.804688 C 721.058594 519.972656 719.746094 518.105469 718.476562 516.210938 C 717.210938 514.3125 715.992188 512.386719 714.816406 510.429688 C 713.644531 508.472656 712.519531 506.488281 711.445312 504.476562 C 710.371094 502.460938 709.34375 500.425781 708.367188 498.363281 C 707.394531 496.300781 706.46875 494.214844 705.597656 492.105469 C 704.722656 490 703.902344 487.871094 703.132812 485.722656 C 702.367188 483.574219 701.648438 481.410156 700.988281 479.226562 C 700.324219 477.042969 699.71875 474.84375 699.164062 472.628906 C 698.609375 470.417969 698.109375 468.191406 697.664062 465.953125 C 697.21875 463.714844 696.828125 461.46875 696.496094 459.210938 C 696.160156 456.957031 695.878906 454.691406 695.65625 452.421875 C 695.433594 450.148438 695.265625 447.875 695.152344 445.597656 C 695.042969 443.316406 694.984375 441.039062 694.984375 438.757812 C 694.984375 436.472656 695.042969 434.195312 695.152344 431.914062 C 695.265625 429.636719 695.433594 427.363281 695.65625 425.089844 C 695.878906 422.820312 696.160156 420.558594 696.496094 418.300781 C 696.828125 416.042969 697.21875 413.796875 697.664062 411.558594 C 698.109375 409.320312 698.609375 407.09375 699.164062 404.882812 C 699.71875 402.667969 700.324219 400.46875 700.988281 398.285156 C 701.648438 396.105469 702.367188 393.9375 703.132812 391.789062 C 703.902344 389.640625 704.722656 387.511719 705.597656 385.40625 C 706.46875 383.296875 707.394531 381.210938 708.367188 379.148438 C 709.34375 377.085938 710.371094 375.050781 711.445312 373.039062 C 712.519531 371.023438 713.644531 369.039062 714.816406 367.082031 C 715.992188 365.125 717.210938 363.199219 718.476562 361.300781 C 719.746094 359.40625 721.058594 357.539062 722.417969 355.707031 C 723.777344 353.875 725.179688 352.078125 726.628906 350.3125 C 728.074219 348.550781 729.5625 346.820312 731.097656 345.132812 C 732.628906 343.441406 734.199219 341.789062 735.8125 340.175781 L 748.285156 327.707031 L 760.753906 340.175781 C 762.367188 341.789062 763.9375 343.441406 765.46875 345.128906 C 767 346.820312 768.492188 348.546875 769.9375 350.3125 C 771.386719 352.074219 772.789062 353.875 774.144531 355.707031 C 775.503906 357.539062 776.816406 359.402344 778.085938 361.300781 C 779.351562 363.199219 780.570312 365.125 781.746094 367.082031 C 782.917969 369.039062 784.042969 371.023438 785.117188 373.035156 C 786.191406 375.046875 787.214844 377.085938 788.191406 379.148438 C 789.167969 381.210938 790.089844 383.292969 790.964844 385.402344 C 791.835938 387.511719 792.65625 389.636719 793.425781 391.785156 C 794.195312 393.933594 794.910156 396.101562 795.570312 398.28125 C 796.234375 400.464844 796.839844 402.664062 797.394531 404.875 C 797.949219 407.089844 798.449219 409.316406 798.894531 411.550781 C 799.339844 413.789062 799.730469 416.039062 800.0625 418.292969 C 800.398438 420.550781 800.675781 422.8125 800.902344 425.085938 C 801.125 427.355469 801.292969 429.628906 801.40625 431.90625 C 801.515625 434.1875 801.570312 436.464844 801.570312 438.746094 C 801.570312 441.027344 801.515625 443.308594 801.40625 445.585938 C 801.292969 447.867188 801.125 450.140625 800.902344 452.410156 C 800.675781 454.679688 800.398438 456.945312 800.0625 459.203125 C 799.730469 461.457031 799.339844 463.703125 798.894531 465.941406 C 798.449219 468.179688 797.949219 470.40625 797.394531 472.617188 C 796.839844 474.832031 796.234375 477.027344 795.570312 479.210938 C 794.910156 481.394531 794.195312 483.5625 793.425781 485.710938 C 792.65625 487.855469 791.835938 489.984375 790.964844 492.09375 C 790.089844 494.199219 789.167969 496.285156 788.191406 498.347656 C 787.214844 500.410156 786.191406 502.449219 785.117188 504.460938 C 784.042969 506.472656 782.917969 508.457031 781.746094 510.414062 C 780.570312 512.371094 779.351562 514.296875 778.085938 516.195312 C 776.816406 518.089844 775.503906 519.957031 774.144531 521.789062 C 772.789062 523.621094 771.386719 525.417969 769.9375 527.183594 C 768.492188 528.945312 767 530.671875 765.46875 532.363281 C 763.9375 534.054688 762.367188 535.707031 760.753906 537.320312 Z M 839.1875 802.320312 C 838.175781 800.933594 837.199219 799.527344 836.253906 798.09375 C 835.3125 796.660156 834.402344 795.207031 833.53125 793.730469 C 832.660156 792.253906 831.824219 790.753906 831.027344 789.238281 C 830.226562 787.71875 829.46875 786.183594 828.742188 784.628906 C 828.019531 783.070312 827.335938 781.5 826.691406 779.910156 C 826.046875 778.320312 825.4375 776.71875 824.871094 775.097656 C 824.304688 773.480469 823.777344 771.847656 823.289062 770.203125 C 822.804688 768.558594 822.355469 766.902344 821.953125 765.238281 C 821.546875 763.570312 821.179688 761.894531 820.859375 760.210938 C 820.535156 758.527344 820.253906 756.835938 820.011719 755.136719 C 819.773438 753.4375 819.574219 751.734375 819.417969 750.027344 C 819.261719 748.320312 819.144531 746.609375 819.070312 744.894531 C 819 743.179688 818.96875 741.464844 818.980469 739.75 C 818.992188 738.035156 819.046875 736.324219 819.140625 734.609375 C 819.238281 732.898438 819.375 731.1875 819.554688 729.484375 C 819.734375 727.777344 819.953125 726.078125 820.21875 724.382812 C 820.480469 722.6875 820.785156 721 821.128906 719.320312 C 821.476562 717.640625 821.863281 715.96875 822.292969 714.308594 C 822.71875 712.648438 823.1875 710.996094 823.695312 709.359375 C 824.207031 707.722656 824.753906 706.097656 825.34375 704.484375 C 825.929688 702.875 826.558594 701.277344 827.226562 699.699219 C 827.894531 698.117188 828.597656 696.554688 829.34375 695.011719 C 830.085938 693.464844 830.867188 691.9375 831.6875 690.429688 C 832.503906 688.925781 833.359375 687.4375 834.25 685.972656 C 835.144531 684.507812 836.070312 683.066406 837.03125 681.644531 C 837.996094 680.226562 838.992188 678.828125 840.023438 677.460938 C 841.054688 676.089844 842.117188 674.742188 843.214844 673.425781 C 844.3125 672.105469 845.441406 670.816406 846.601562 669.550781 C 847.761719 668.289062 848.953125 667.054688 850.171875 665.851562 C 851.394531 664.644531 852.644531 663.472656 853.921875 662.328125 C 855.199219 661.1875 856.507812 660.074219 857.839844 658.996094 C 859.171875 657.917969 860.53125 656.871094 861.914062 655.859375 C 862.929688 657.242188 863.90625 658.652344 864.847656 660.082031 C 865.792969 661.515625 866.699219 662.96875 867.574219 664.449219 C 868.445312 665.925781 869.28125 667.421875 870.078125 668.941406 C 870.875 670.457031 871.636719 671.996094 872.359375 673.550781 C 873.082031 675.105469 873.769531 676.675781 874.414062 678.265625 C 875.058594 679.855469 875.667969 681.460938 876.234375 683.078125 C 876.800781 684.695312 877.328125 686.328125 877.8125 687.972656 C 878.300781 689.617188 878.746094 691.273438 879.152344 692.941406 C 879.558594 694.605469 879.921875 696.28125 880.246094 697.964844 C 880.570312 699.652344 880.851562 701.34375 881.09375 703.039062 C 881.332031 704.738281 881.53125 706.441406 881.6875 708.148438 C 881.84375 709.859375 881.960938 711.570312 882.03125 713.28125 C 882.105469 714.996094 882.136719 716.710938 882.125 718.425781 C 882.113281 720.140625 882.058594 721.855469 881.964844 723.566406 C 881.867188 725.28125 881.730469 726.988281 881.550781 728.695312 C 881.371094 730.402344 881.148438 732.101562 880.886719 733.796875 C 880.625 735.492188 880.320312 737.179688 879.972656 738.859375 C 879.628906 740.539062 879.242188 742.207031 878.8125 743.871094 C 878.386719 745.53125 877.917969 747.179688 877.410156 748.816406 C 876.898438 750.457031 876.351562 752.082031 875.761719 753.691406 C 875.171875 755.300781 874.546875 756.898438 873.878906 758.476562 C 873.210938 760.058594 872.507812 761.621094 871.761719 763.167969 C 871.019531 764.710938 870.238281 766.238281 869.417969 767.746094 C 868.601562 769.253906 867.746094 770.738281 866.855469 772.203125 C 865.960938 773.671875 865.035156 775.113281 864.074219 776.53125 C 863.109375 777.953125 862.113281 779.347656 861.082031 780.71875 C 860.050781 782.089844 858.988281 783.433594 857.890625 784.75 C 856.792969 786.070312 855.664062 787.359375 854.503906 788.625 C 853.34375 789.886719 852.152344 791.121094 850.933594 792.324219 C 849.710938 793.53125 848.460938 794.703125 847.183594 795.847656 C 845.90625 796.992188 844.597656 798.101562 843.265625 799.183594 C 841.933594 800.261719 840.574219 801.308594 839.1875 802.320312 Z M 795.398438 623.390625 C 795.910156 621.121094 796.476562 618.867188 797.097656 616.625 C 797.71875 614.386719 798.394531 612.160156 799.125 609.953125 C 799.855469 607.746094 800.640625 605.558594 801.476562 603.390625 C 802.316406 601.222656 803.207031 599.074219 804.148438 596.949219 C 805.09375 594.824219 806.085938 592.722656 807.132812 590.648438 C 808.179688 588.570312 809.277344 586.523438 810.425781 584.5 C 811.570312 582.476562 812.769531 580.484375 814.011719 578.523438 C 815.257812 576.558594 816.550781 574.625 817.890625 572.726562 C 819.230469 570.828125 820.617188 568.960938 822.046875 567.128906 C 823.480469 565.296875 824.953125 563.5 826.472656 561.742188 C 827.992188 559.980469 829.554688 558.261719 831.160156 556.578125 C 832.765625 554.894531 834.410156 553.253906 836.09375 551.648438 C 837.777344 550.046875 839.503906 548.488281 841.261719 546.972656 C 843.023438 545.453125 844.824219 543.980469 846.65625 542.550781 C 848.492188 541.121094 850.359375 539.738281 852.261719 538.402344 C 854.164062 537.0625 856.09375 535.773438 858.0625 534.53125 C 860.027344 533.289062 862.019531 532.097656 864.042969 530.953125 C 866.066406 529.808594 868.117188 528.710938 870.195312 527.667969 C 872.273438 526.625 874.375 525.632812 876.5 524.691406 C 878.628906 523.753906 880.777344 522.863281 882.945312 522.027344 C 885.117188 521.195312 887.304688 520.414062 889.511719 519.683594 C 891.722656 518.957031 893.945312 518.285156 896.1875 517.667969 C 898.429688 517.046875 900.683594 516.484375 902.953125 515.976562 C 905.222656 515.46875 907.5 515.019531 909.792969 514.625 C 912.082031 514.226562 914.382812 513.890625 916.691406 513.605469 C 919 513.324219 921.3125 513.097656 923.628906 512.929688 C 925.949219 512.761719 928.269531 512.648438 930.59375 512.59375 C 932.917969 512.539062 935.242188 512.539062 937.570312 512.597656 C 939.894531 512.660156 942.214844 512.773438 944.53125 512.949219 C 946.851562 513.121094 949.164062 513.351562 951.472656 513.636719 C 953.777344 513.925781 956.078125 514.269531 958.367188 514.667969 C 960.65625 515.066406 962.9375 515.523438 965.207031 516.035156 C 964.695312 518.304688 964.128906 520.558594 963.507812 522.796875 C 962.886719 525.039062 962.210938 527.261719 961.480469 529.46875 C 960.75 531.675781 959.964844 533.863281 959.128906 536.035156 C 958.289062 538.203125 957.398438 540.347656 956.457031 542.472656 C 955.511719 544.597656 954.515625 546.699219 953.472656 548.777344 C 952.425781 550.851562 951.328125 552.902344 950.179688 554.921875 C 949.035156 556.945312 947.835938 558.9375 946.59375 560.902344 C 945.347656 562.867188 944.054688 564.796875 942.714844 566.699219 C 941.375 568.597656 939.988281 570.464844 938.558594 572.296875 C 937.125 574.128906 935.652344 575.921875 934.128906 577.683594 C 932.609375 579.441406 931.050781 581.164062 929.445312 582.847656 C 927.839844 584.527344 926.195312 586.171875 924.511719 587.773438 C 922.824219 589.375 921.101562 590.933594 919.339844 592.453125 C 917.578125 593.96875 915.78125 595.445312 913.949219 596.871094 C 912.113281 598.300781 910.246094 599.683594 908.34375 601.023438 C 906.441406 602.359375 904.507812 603.648438 902.542969 604.890625 C 900.578125 606.132812 898.585938 607.328125 896.5625 608.472656 C 894.535156 609.617188 892.484375 610.710938 890.410156 611.753906 C 888.332031 612.796875 886.230469 613.789062 884.101562 614.730469 C 881.976562 615.671875 879.828125 616.558594 877.660156 617.394531 C 875.488281 618.230469 873.300781 619.011719 871.089844 619.738281 C 868.882812 620.464844 866.660156 621.140625 864.417969 621.757812 C 862.175781 622.375 859.921875 622.9375 857.652344 623.445312 C 855.382812 623.953125 853.101562 624.40625 850.8125 624.800781 C 848.519531 625.195312 846.222656 625.535156 843.914062 625.816406 C 841.605469 626.101562 839.292969 626.324219 836.972656 626.496094 C 834.65625 626.664062 832.332031 626.777344 830.007812 626.832031 C 827.683594 626.886719 825.359375 626.882812 823.035156 626.824219 C 820.710938 626.765625 818.390625 626.648438 816.074219 626.476562 C 813.753906 626.300781 811.441406 626.074219 809.132812 625.785156 C 806.828125 625.5 804.527344 625.15625 802.238281 624.757812 C 799.945312 624.355469 797.667969 623.902344 795.398438 623.390625 Z M 956.371094 744.226562 C 955.515625 742.738281 954.695312 741.234375 953.910156 739.707031 C 953.125 738.183594 952.378906 736.640625 951.671875 735.078125 C 950.964844 733.515625 950.296875 731.9375 949.664062 730.339844 C 949.035156 728.746094 948.445312 727.136719 947.890625 725.511719 C 947.339844 723.886719 946.828125 722.25 946.359375 720.601562 C 945.886719 718.953125 945.457031 717.292969 945.066406 715.625 C 944.679688 713.953125 944.332031 712.273438 944.023438 710.585938 C 943.714844 708.898438 943.449219 707.207031 943.226562 705.503906 C 943.003906 703.804688 942.820312 702.097656 942.679688 700.390625 C 942.539062 698.679688 942.441406 696.96875 942.386719 695.253906 C 942.332031 693.539062 942.316406 691.824219 942.34375 690.109375 C 942.371094 688.394531 942.441406 686.683594 942.554688 684.972656 C 942.667969 683.261719 942.820312 681.550781 943.019531 679.847656 C 943.214844 678.144531 943.453125 676.445312 943.730469 674.753906 C 944.011719 673.0625 944.332031 671.378906 944.695312 669.703125 C 945.054688 668.023438 945.460938 666.359375 945.902344 664.703125 C 946.347656 663.046875 946.832031 661.402344 947.355469 659.765625 C 947.882812 658.132812 948.445312 656.515625 949.050781 654.910156 C 949.65625 653.304688 950.296875 651.714844 950.980469 650.140625 C 951.664062 648.570312 952.382812 647.011719 953.140625 645.476562 C 953.902344 643.9375 954.695312 642.417969 955.53125 640.917969 C 956.363281 639.421875 957.234375 637.941406 958.140625 636.484375 C 959.042969 635.03125 959.984375 633.597656 960.960938 632.1875 C 961.9375 630.777344 962.949219 629.390625 963.992188 628.03125 C 965.039062 626.667969 966.113281 625.335938 967.222656 624.027344 C 968.332031 622.71875 969.476562 621.441406 970.648438 620.1875 C 971.820312 618.9375 973.023438 617.714844 974.253906 616.523438 C 975.488281 615.328125 976.75 614.167969 978.039062 613.039062 C 979.328125 611.90625 980.644531 610.808594 981.988281 609.742188 C 983.332031 608.675781 984.703125 607.644531 986.097656 606.644531 C 987.492188 605.648438 988.910156 604.683594 990.351562 603.753906 C 991.792969 602.824219 993.253906 601.929688 994.742188 601.074219 C 995.597656 602.558594 996.417969 604.066406 997.203125 605.589844 C 997.984375 607.117188 998.730469 608.660156 999.4375 610.222656 C 1000.144531 611.785156 1000.816406 613.363281 1001.445312 614.957031 C 1002.074219 616.554688 1002.667969 618.164062 1003.21875 619.789062 C 1003.769531 621.410156 1004.28125 623.046875 1004.75 624.699219 C 1005.222656 626.347656 1005.652344 628.007812 1006.039062 629.675781 C 1006.429688 631.347656 1006.777344 633.027344 1007.085938 634.714844 C 1007.390625 636.402344 1007.65625 638.09375 1007.878906 639.792969 C 1008.105469 641.496094 1008.285156 643.199219 1008.425781 644.910156 C 1008.566406 646.617188 1008.664062 648.332031 1008.71875 650.042969 C 1008.777344 651.757812 1008.789062 653.472656 1008.761719 655.1875 C 1008.734375 656.902344 1008.664062 658.617188 1008.550781 660.328125 C 1008.4375 662.039062 1008.285156 663.746094 1008.089844 665.449219 C 1007.890625 667.152344 1007.652344 668.851562 1007.375 670.542969 C 1007.09375 672.234375 1006.773438 673.921875 1006.410156 675.597656 C 1006.050781 677.273438 1005.648438 678.941406 1005.203125 680.597656 C 1004.757812 682.253906 1004.273438 683.898438 1003.75 685.53125 C 1003.226562 687.164062 1002.660156 688.78125 1002.054688 690.386719 C 1001.453125 691.992188 1000.808594 693.582031 1000.125 695.15625 C 999.445312 696.726562 998.722656 698.285156 997.964844 699.820312 C 997.207031 701.359375 996.410156 702.878906 995.578125 704.378906 C 994.742188 705.875 993.875 707.355469 992.96875 708.8125 C 992.0625 710.265625 991.121094 711.699219 990.144531 713.109375 C 989.167969 714.519531 988.160156 715.90625 987.117188 717.265625 C 986.070312 718.628906 984.996094 719.960938 983.882812 721.269531 C 982.773438 722.578125 981.632812 723.855469 980.460938 725.109375 C 979.289062 726.359375 978.085938 727.582031 976.855469 728.773438 C 975.621094 729.96875 974.359375 731.128906 973.070312 732.261719 C 971.78125 733.390625 970.464844 734.488281 969.121094 735.554688 C 967.777344 736.621094 966.410156 737.652344 965.015625 738.652344 C 963.621094 739.652344 962.203125 740.617188 960.761719 741.546875 C 959.320312 742.472656 957.855469 743.367188 956.371094 744.226562 Z M 849.121094 951.9375 C 850.8125 951.9375 852.507812 951.976562 854.199219 952.0625 C 855.890625 952.144531 857.582031 952.269531 859.265625 952.433594 C 860.953125 952.601562 862.632812 952.808594 864.308594 953.058594 C 865.984375 953.304688 867.652344 953.59375 869.3125 953.925781 C 870.976562 954.257812 872.628906 954.625 874.273438 955.039062 C 875.914062 955.449219 877.546875 955.902344 879.167969 956.394531 C 880.789062 956.886719 882.398438 957.417969 883.992188 957.988281 C 885.585938 958.558594 887.167969 959.167969 888.734375 959.816406 C 890.296875 960.464844 891.847656 961.148438 893.378906 961.875 C 894.910156 962.597656 896.421875 963.359375 897.914062 964.160156 C 899.410156 964.957031 900.882812 965.792969 902.335938 966.664062 C 903.789062 967.535156 905.21875 968.441406 906.628906 969.382812 C 908.039062 970.324219 909.421875 971.296875 910.78125 972.308594 C 912.144531 973.316406 913.476562 974.359375 914.789062 975.433594 C 916.097656 976.507812 917.378906 977.613281 918.636719 978.75 C 919.890625 979.890625 921.117188 981.058594 922.316406 982.253906 C 923.511719 983.453125 924.679688 984.679688 925.816406 985.933594 C 926.957031 987.1875 928.0625 988.472656 929.136719 989.78125 C 930.210938 991.089844 931.253906 992.425781 932.261719 993.785156 C 933.269531 995.148438 934.246094 996.53125 935.1875 997.941406 C 936.128906 999.347656 937.035156 1000.78125 937.90625 1002.234375 C 938.777344 1003.6875 939.613281 1005.160156 940.410156 1006.652344 C 941.207031 1008.148438 941.96875 1009.660156 942.695312 1011.191406 C 943.417969 1012.722656 944.105469 1014.269531 944.753906 1015.835938 C 945.402344 1017.402344 946.011719 1018.980469 946.582031 1020.578125 C 947.152344 1022.171875 947.683594 1023.78125 948.175781 1025.402344 C 948.667969 1027.023438 949.117188 1028.652344 949.53125 1030.296875 C 949.941406 1031.941406 950.3125 1033.59375 950.644531 1035.253906 C 950.972656 1036.917969 951.265625 1038.585938 951.511719 1040.261719 C 951.761719 1041.9375 951.96875 1043.617188 952.132812 1045.304688 C 952.300781 1046.988281 952.425781 1048.679688 952.507812 1050.371094 C 952.589844 1052.0625 952.632812 1053.753906 952.632812 1055.449219 C 950.9375 1055.449219 949.246094 1055.40625 947.554688 1055.324219 C 945.863281 1055.242188 944.171875 1055.117188 942.488281 1054.949219 C 940.800781 1054.785156 939.121094 1054.578125 937.445312 1054.328125 C 935.769531 1054.078125 934.101562 1053.789062 932.4375 1053.460938 C 930.777344 1053.128906 929.125 1052.757812 927.480469 1052.347656 C 925.835938 1051.933594 924.207031 1051.484375 922.585938 1050.992188 C 920.964844 1050.5 919.355469 1049.96875 917.761719 1049.398438 C 916.164062 1048.828125 914.585938 1048.21875 913.019531 1047.570312 C 911.453125 1046.921875 909.90625 1046.234375 908.375 1045.511719 C 906.84375 1044.785156 905.332031 1044.023438 903.835938 1043.226562 C 902.34375 1042.429688 900.871094 1041.59375 899.417969 1040.722656 C 897.964844 1039.851562 896.53125 1038.945312 895.125 1038.003906 C 893.714844 1037.0625 892.332031 1036.085938 890.96875 1035.078125 C 889.609375 1034.070312 888.273438 1033.027344 886.964844 1031.953125 C 885.65625 1030.878906 884.375 1029.773438 883.117188 1028.632812 C 881.863281 1027.496094 880.636719 1026.328125 879.4375 1025.132812 C 878.242188 1023.933594 877.074219 1022.707031 875.933594 1021.453125 C 874.796875 1020.195312 873.691406 1018.914062 872.617188 1017.605469 C 871.542969 1016.292969 870.5 1014.960938 869.492188 1013.597656 C 868.480469 1012.238281 867.507812 1010.851562 866.566406 1009.445312 C 865.625 1008.035156 864.71875 1006.605469 863.847656 1005.152344 C 862.976562 1003.699219 862.140625 1002.226562 861.34375 1000.730469 C 860.542969 999.238281 859.78125 997.726562 859.058594 996.195312 C 858.335938 994.664062 857.648438 993.113281 857 991.550781 C 856.351562 989.984375 855.742188 988.402344 855.171875 986.808594 C 854.601562 985.214844 854.070312 983.605469 853.578125 981.984375 C 853.085938 980.363281 852.632812 978.730469 852.222656 977.089844 C 851.8125 975.445312 851.441406 973.792969 851.109375 972.128906 C 850.777344 970.46875 850.488281 968.800781 850.242188 967.125 C 849.992188 965.449219 849.785156 963.769531 849.617188 962.082031 C 849.453125 960.398438 849.328125 958.707031 849.246094 957.015625 C 849.160156 955.324219 849.121094 953.628906 849.121094 951.9375 Z M 1041.101562 954.335938 C 1039.476562 954.886719 1037.839844 955.398438 1036.191406 955.867188 C 1034.542969 956.335938 1032.882812 956.765625 1031.210938 957.152344 C 1029.539062 957.539062 1027.859375 957.886719 1026.171875 958.191406 C 1024.484375 958.496094 1022.789062 958.761719 1021.089844 958.984375 C 1019.390625 959.203125 1017.683594 959.386719 1015.972656 959.523438 C 1014.265625 959.660156 1012.550781 959.757812 1010.839844 959.8125 C 1009.125 959.867188 1007.410156 959.878906 1005.695312 959.847656 C 1003.980469 959.820312 1002.265625 959.746094 1000.554688 959.632812 C 998.84375 959.519531 997.136719 959.363281 995.433594 959.167969 C 993.726562 958.96875 992.03125 958.730469 990.339844 958.449219 C 988.648438 958.167969 986.960938 957.84375 985.285156 957.480469 C 983.609375 957.117188 981.945312 956.710938 980.289062 956.265625 C 978.632812 955.820312 976.988281 955.335938 975.355469 954.808594 C 973.722656 954.28125 972.105469 953.714844 970.5 953.109375 C 968.894531 952.503906 967.304688 951.859375 965.734375 951.175781 C 964.160156 950.492188 962.605469 949.769531 961.066406 949.007812 C 959.53125 948.25 958.011719 947.453125 956.511719 946.617188 C 955.015625 945.78125 953.539062 944.910156 952.082031 944.003906 C 950.625 943.097656 949.195312 942.152344 947.785156 941.175781 C 946.375 940.199219 944.992188 939.1875 943.632812 938.140625 C 942.273438 937.097656 940.9375 936.019531 939.632812 934.90625 C 938.324219 933.796875 937.046875 932.652344 935.796875 931.480469 C 934.546875 930.304688 933.324219 929.101562 932.132812 927.867188 C 930.941406 926.632812 929.78125 925.371094 928.652344 924.082031 C 927.523438 922.789062 926.425781 921.472656 925.359375 920.128906 C 924.292969 918.785156 923.265625 917.414062 922.265625 916.019531 C 921.269531 914.621094 920.304688 913.203125 919.378906 911.761719 C 918.449219 910.320312 917.558594 908.855469 916.703125 907.367188 C 915.847656 905.882812 915.027344 904.375 914.246094 902.847656 C 913.464844 901.324219 912.71875 899.777344 912.011719 898.214844 C 911.304688 896.652344 910.640625 895.070312 910.011719 893.476562 C 909.382812 891.878906 908.792969 890.269531 908.242188 888.644531 C 909.867188 888.097656 911.503906 887.585938 913.15625 887.117188 C 914.804688 886.648438 916.464844 886.21875 918.136719 885.832031 C 919.804688 885.445312 921.484375 885.097656 923.171875 884.792969 C 924.863281 884.488281 926.554688 884.226562 928.257812 884.003906 C 929.957031 883.78125 931.660156 883.601562 933.371094 883.464844 C 935.082031 883.324219 936.792969 883.230469 938.507812 883.175781 C 940.222656 883.121094 941.9375 883.109375 943.652344 883.136719 C 945.367188 883.167969 947.078125 883.242188 948.789062 883.355469 C 950.5 883.46875 952.207031 883.625 953.914062 883.824219 C 955.617188 884.019531 957.3125 884.261719 959.003906 884.542969 C 960.699219 884.824219 962.382812 885.144531 964.058594 885.507812 C 965.734375 885.871094 967.398438 886.277344 969.054688 886.722656 C 970.710938 887.167969 972.355469 887.65625 973.988281 888.179688 C 975.621094 888.707031 977.238281 889.273438 978.84375 889.878906 C 980.449219 890.484375 982.039062 891.128906 983.609375 891.816406 C 985.183594 892.5 986.738281 893.21875 988.277344 893.980469 C 989.8125 894.742188 991.332031 895.539062 992.828125 896.371094 C 994.328125 897.207031 995.804688 898.078125 997.261719 898.984375 C 998.714844 899.894531 1000.148438 900.835938 1001.558594 901.8125 C 1002.96875 902.789062 1004.351562 903.800781 1005.710938 904.847656 C 1007.070312 905.894531 1008.402344 906.972656 1009.710938 908.082031 C 1011.015625 909.191406 1012.296875 910.335938 1013.546875 911.507812 C 1014.796875 912.683594 1016.019531 913.886719 1017.210938 915.121094 C 1018.402344 916.351562 1019.5625 917.617188 1020.691406 918.90625 C 1021.820312 920.195312 1022.917969 921.515625 1023.984375 922.859375 C 1025.046875 924.203125 1026.078125 925.574219 1027.078125 926.96875 C 1028.074219 928.363281 1029.039062 929.78125 1029.964844 931.222656 C 1030.894531 932.667969 1031.785156 934.128906 1032.640625 935.617188 C 1033.496094 937.101562 1034.316406 938.609375 1035.097656 940.136719 C 1035.882812 941.660156 1036.625 943.207031 1037.332031 944.769531 C 1038.039062 946.332031 1038.707031 947.910156 1039.335938 949.507812 C 1039.964844 951.101562 1040.554688 952.714844 1041.101562 954.335938 Z M 1134.203125 856.898438 C 1132.753906 857.816406 1131.285156 858.695312 1129.792969 859.542969 C 1128.300781 860.386719 1126.789062 861.195312 1125.257812 861.96875 C 1123.726562 862.738281 1122.175781 863.472656 1120.609375 864.167969 C 1119.039062 864.863281 1117.457031 865.519531 1115.855469 866.136719 C 1114.257812 866.753906 1112.640625 867.332031 1111.015625 867.871094 C 1109.386719 868.410156 1107.746094 868.90625 1106.09375 869.367188 C 1104.441406 869.824219 1102.777344 870.242188 1101.101562 870.617188 C 1099.429688 870.992188 1097.75 871.328125 1096.058594 871.621094 C 1094.371094 871.914062 1092.671875 872.167969 1090.972656 872.375 C 1089.269531 872.585938 1087.5625 872.753906 1085.851562 872.882812 C 1084.140625 873.007812 1082.429688 873.09375 1080.714844 873.136719 C 1079 873.179688 1077.285156 873.179688 1075.570312 873.136719 C 1073.855469 873.09375 1072.144531 873.011719 1070.433594 872.886719 C 1068.722656 872.761719 1067.019531 872.59375 1065.316406 872.382812 C 1063.613281 872.171875 1061.917969 871.921875 1060.226562 871.628906 C 1058.539062 871.335938 1056.855469 871.003906 1055.183594 870.628906 C 1053.507812 870.253906 1051.847656 869.835938 1050.191406 869.378906 C 1048.539062 868.921875 1046.898438 868.425781 1045.269531 867.886719 C 1043.640625 867.347656 1042.027344 866.773438 1040.425781 866.15625 C 1038.828125 865.539062 1037.242188 864.882812 1035.675781 864.1875 C 1034.105469 863.492188 1032.558594 862.761719 1031.023438 861.992188 C 1029.492188 861.21875 1027.980469 860.414062 1026.488281 859.566406 C 1024.996094 858.722656 1023.523438 857.839844 1022.074219 856.925781 C 1020.625 856.007812 1019.199219 855.054688 1017.796875 854.066406 C 1016.394531 853.082031 1015.019531 852.058594 1013.664062 851.003906 C 1012.3125 849.949219 1010.988281 848.863281 1009.6875 847.742188 C 1008.390625 846.625 1007.121094 845.472656 1005.875 844.289062 C 1004.632812 843.109375 1003.421875 841.894531 1002.238281 840.652344 C 1001.054688 839.414062 999.902344 838.140625 998.785156 836.84375 C 997.664062 835.546875 996.574219 834.21875 995.519531 832.867188 C 994.464844 831.515625 993.441406 830.140625 992.453125 828.738281 C 991.464844 827.335938 990.511719 825.910156 989.59375 824.460938 C 991.042969 823.542969 992.515625 822.664062 994.007812 821.816406 C 995.5 820.96875 997.011719 820.160156 998.542969 819.390625 C 1000.074219 818.617188 1001.621094 817.886719 1003.191406 817.1875 C 1004.757812 816.492188 1006.34375 815.835938 1007.941406 815.21875 C 1009.542969 814.601562 1011.15625 814.023438 1012.785156 813.484375 C 1014.414062 812.945312 1016.054688 812.449219 1017.707031 811.988281 C 1019.359375 811.53125 1021.023438 811.113281 1022.695312 810.738281 C 1024.367188 810.363281 1026.050781 810.027344 1027.742188 809.734375 C 1029.429688 809.441406 1031.125 809.1875 1032.828125 808.976562 C 1034.53125 808.765625 1036.238281 808.597656 1037.945312 808.472656 C 1039.65625 808.34375 1041.371094 808.261719 1043.085938 808.21875 C 1044.800781 808.175781 1046.511719 808.175781 1048.226562 808.214844 C 1049.941406 808.257812 1051.65625 808.339844 1053.367188 808.46875 C 1055.078125 808.59375 1056.78125 808.761719 1058.484375 808.96875 C 1060.1875 809.179688 1061.882812 809.429688 1063.574219 809.722656 C 1065.261719 810.015625 1066.945312 810.351562 1068.617188 810.726562 C 1070.292969 811.101562 1071.953125 811.515625 1073.609375 811.972656 C 1075.261719 812.429688 1076.902344 812.929688 1078.53125 813.464844 C 1080.160156 814.003906 1081.773438 814.582031 1083.375 815.199219 C 1084.972656 815.8125 1086.558594 816.46875 1088.125 817.164062 C 1089.695312 817.859375 1091.246094 818.59375 1092.777344 819.363281 C 1094.308594 820.132812 1095.820312 820.941406 1097.3125 821.785156 C 1098.804688 822.632812 1100.277344 823.511719 1101.726562 824.429688 C 1103.175781 825.347656 1104.601562 826.300781 1106.003906 827.289062 C 1107.40625 828.273438 1108.785156 829.296875 1110.136719 830.351562 C 1111.488281 831.40625 1112.8125 832.492188 1114.113281 833.613281 C 1115.410156 834.734375 1116.683594 835.882812 1117.925781 837.066406 C 1119.167969 838.25 1120.378906 839.460938 1121.5625 840.703125 C 1122.746094 841.945312 1123.898438 843.214844 1125.015625 844.515625 C 1126.136719 845.8125 1127.226562 847.136719 1128.28125 848.488281 C 1129.335938 849.839844 1130.359375 851.21875 1131.347656 852.621094 C 1132.332031 854.023438 1133.285156 855.449219 1134.203125 856.898438 Z M 1029.0625 766.367188 L 1016.765625 764.652344 L 1018.480469 752.355469 C 1018.703125 750.761719 1018.96875 749.175781 1019.273438 747.597656 C 1019.578125 746.015625 1019.917969 744.445312 1020.300781 742.882812 C 1020.679688 741.320312 1021.101562 739.765625 1021.558594 738.222656 C 1022.015625 736.679688 1022.507812 735.152344 1023.039062 733.632812 C 1023.574219 732.113281 1024.140625 730.609375 1024.75 729.121094 C 1025.355469 727.628906 1025.996094 726.15625 1026.675781 724.695312 C 1027.351562 723.238281 1028.066406 721.796875 1028.816406 720.371094 C 1029.566406 718.949219 1030.347656 717.542969 1031.167969 716.160156 C 1031.984375 714.773438 1032.835938 713.410156 1033.722656 712.066406 C 1034.609375 710.722656 1035.527344 709.402344 1036.476562 708.101562 C 1037.425781 706.804688 1038.40625 705.53125 1039.417969 704.28125 C 1040.433594 703.03125 1041.472656 701.804688 1042.546875 700.605469 C 1043.621094 699.40625 1044.722656 698.234375 1045.851562 697.089844 C 1046.980469 695.945312 1048.140625 694.828125 1049.324219 693.742188 C 1050.511719 692.652344 1051.722656 691.59375 1052.957031 690.566406 C 1054.195312 689.539062 1055.457031 688.539062 1056.742188 687.574219 C 1058.027344 686.605469 1059.335938 685.671875 1060.667969 684.769531 C 1062 683.867188 1063.355469 683 1064.730469 682.164062 C 1066.105469 681.328125 1067.496094 680.523438 1068.910156 679.757812 C 1070.324219 678.988281 1071.757812 678.257812 1073.207031 677.558594 C 1074.65625 676.863281 1076.125 676.203125 1077.605469 675.578125 C 1079.089844 674.953125 1080.585938 674.363281 1082.097656 673.8125 C 1083.609375 673.261719 1085.132812 672.746094 1086.667969 672.269531 C 1088.203125 671.792969 1089.753906 671.351562 1091.308594 670.953125 C 1092.867188 670.550781 1094.433594 670.1875 1096.011719 669.863281 C 1097.585938 669.539062 1099.167969 669.253906 1100.757812 669.007812 C 1102.347656 668.761719 1103.945312 668.554688 1105.542969 668.386719 C 1107.144531 668.21875 1108.746094 668.089844 1110.355469 668.003906 C 1111.960938 667.914062 1113.566406 667.863281 1115.175781 667.851562 C 1116.785156 667.84375 1118.394531 667.871094 1120 667.941406 C 1121.609375 668.007812 1123.214844 668.117188 1124.816406 668.265625 C 1126.417969 668.414062 1128.015625 668.597656 1129.605469 668.824219 L 1141.90625 670.539062 L 1140.191406 682.855469 C 1139.964844 684.445312 1139.699219 686.03125 1139.394531 687.613281 C 1139.089844 689.191406 1138.75 690.761719 1138.367188 692.324219 C 1137.988281 693.886719 1137.566406 695.4375 1137.109375 696.976562 C 1136.652344 698.519531 1136.160156 700.050781 1135.628906 701.566406 C 1135.09375 703.082031 1134.527344 704.585938 1133.921875 706.078125 C 1133.316406 707.566406 1132.671875 709.039062 1131.996094 710.496094 C 1131.316406 711.953125 1130.601562 713.394531 1129.855469 714.816406 C 1129.105469 716.242188 1128.320312 717.644531 1127.503906 719.027344 C 1126.6875 720.414062 1125.835938 721.777344 1124.949219 723.121094 C 1124.066406 724.460938 1123.148438 725.78125 1122.199219 727.078125 C 1121.25 728.378906 1120.269531 729.652344 1119.257812 730.898438 C 1118.246094 732.148438 1117.203125 733.375 1116.132812 734.570312 C 1115.058594 735.769531 1113.957031 736.941406 1112.828125 738.085938 C 1111.699219 739.230469 1110.542969 740.347656 1109.359375 741.433594 C 1108.175781 742.519531 1106.964844 743.578125 1105.726562 744.609375 C 1104.492188 745.636719 1103.230469 746.632812 1101.945312 747.597656 C 1100.660156 748.566406 1099.351562 749.5 1098.023438 750.402344 C 1096.691406 751.304688 1095.339844 752.171875 1093.964844 753.007812 C 1092.59375 753.84375 1091.199219 754.644531 1089.785156 755.414062 C 1088.371094 756.179688 1086.941406 756.914062 1085.492188 757.609375 C 1084.042969 758.308594 1082.578125 758.96875 1081.097656 759.59375 C 1079.617188 760.21875 1078.121094 760.808594 1076.609375 761.359375 C 1075.101562 761.914062 1073.578125 762.425781 1072.042969 762.902344 C 1070.507812 763.382812 1068.960938 763.820312 1067.402344 764.222656 C 1065.847656 764.625 1064.28125 764.984375 1062.707031 765.3125 C 1061.132812 765.636719 1059.550781 765.921875 1057.960938 766.167969 C 1056.371094 766.414062 1054.777344 766.621094 1053.179688 766.789062 C 1051.582031 766.960938 1049.976562 767.089844 1048.371094 767.179688 C 1046.769531 767.269531 1045.160156 767.320312 1043.554688 767.332031 C 1041.945312 767.34375 1040.339844 767.3125 1038.730469 767.246094 C 1037.125 767.179688 1035.523438 767.070312 1033.921875 766.925781 C 1032.320312 766.777344 1030.722656 766.59375 1029.128906 766.367188 Z M 1029.0625 766.367188 " fill-opacity="1" fill-rule="nonzero"/></svg>